<svg xmlns="http://www.w3.org/2000/svg" viewBox="0 0 1722.01 113.56"><title>Asset 6</title><g id="Layer_2" data-name="Layer 2"><g id="Layer_2-2" data-name="Layer 2"><path d="M41.91,24.88a3.49,3.49,0,0,1,.65,1.72,4.36,4.36,0,0,1-.57,2H38.32v3.54a3.4,3.4,0,0,1-2,.58,2.38,2.38,0,0,1-1.74-.65V28.61H31.12A2.71,2.71,0,0,1,30.57,27a3.62,3.62,0,0,1,.48-2.11h3.67V21.21a4.07,4.07,0,0,1,1.85-.37,4.82,4.82,0,0,1,1.88.44v3.6Z" fill="#ff151b"/><path d="M61.75,29.74a2.91,2.91,0,1,1-2.91-2.91A2.91,2.91,0,0,1,61.75,29.74Z" fill="#ff151b"/><path d="M61.75,21.74a2.91,2.91,0,1,1-2.91-2.91A2.91,2.91,0,0,1,61.75,21.74Z" fill="#ff151b"/><path d="M63.18,26a2.91,2.91,0,1,1,2.9,2.91A2.89,2.89,0,0,1,63.18,26Z" fill="#ff151b"/><path d="M196.46,0,82.37,113.56h51.35L247.78,0Zm148,0L230.37,113.56H1722V0Zm-74,0L156.37,113.56h51.35L321.78,0ZM0,0V113.56H59.72L173.78,0ZM69.42,48.35C66.31,48.09,59.58,40,59.58,40A3.83,3.83,0,0,0,57,38.79H39.86A3.87,3.87,0,0,0,37.27,40s-6.73,8.1-9.83,8.36-4.76-1.81-5.26-4.92c0,0-2.85-12.66,4.23-24.3S44.17,15.6,44.17,15.6a5.42,5.42,0,0,0,2.83,1h2.86a5.5,5.5,0,0,0,2.83-1s10.67-8.1,17.76,3.54,4.22,24.3,4.22,24.3C74.17,46.54,72.52,48.61,69.42,48.35Z" fill="#ff151b"/></g></g></svg>