<svg xmlns="http://www.w3.org/2000/svg" viewBox="0 0 359.53 398"><title>god</title><g id="Layer_2" data-name="Layer 2"><g id="Layer_2-2" data-name="Layer 2"><path d="M296.23,339.84a45.07,45.07,0,0,0-5.74,22.1v28.6a89,89,0,0,1-33.6-13,87.93,87.93,0,0,1-25.58-25.26,180.14,180.14,0,0,1-30.12-96.5l-.06-1.19v-.07c.38-3.16.63-6.19.76-9.22.82-2.08,1.58-4.17,2.33-6.31h25.83a158.56,158.56,0,0,0,85.69,82.09,46.68,46.68,0,0,0-18.43,16.86c-.38.63-.76,1.26-1.08,1.9Z" fill="#e6e9ed"/><path d="M201.89,245.3a194.64,194.64,0,0,1-64.41,84.75l-.26.19h-.06a16.42,16.42,0,0,0-7.39-7.39,15.74,15.74,0,0,0-7.39-1.77H106.09a18.75,18.75,0,0,1-9.41-2.52L86.89,313c-.19-1.39-.44-2.78-.69-4.17-.89-4.42-1.77-9-2.72-13.58l.63-.25a175.69,175.69,0,0,0,98.83-106l31.51,2.84A193.84,193.84,0,0,1,204.22,239c-.75,2.14-1.51,4.23-2.33,6.31Z" fill="#e6e9ed"/><path d="M230.24,131.44l-1.14-.75a18.09,18.09,0,0,1-8.08-15,17.73,17.73,0,0,1,.95-5.75l3.91-11.74a29.43,29.43,0,0,0,1.46-9.1,28.64,28.64,0,0,0-11.43-22.86l-7.83-5.81a18.61,18.61,0,0,0,.31-3.28A18.38,18.38,0,0,0,203,44.17l-9.59-9.6A35.23,35.23,0,0,0,149,30.22l-10,6.69-10-6.69a35.23,35.23,0,0,0-44.46,4.35l-9.6,9.6a18.38,18.38,0,0,0-5.37,12.95,18.61,18.61,0,0,0,.32,3.28L62,66.21A28.64,28.64,0,0,0,50.52,89.07,29.42,29.42,0,0,0,52,98.17l3.92,11.74a17.73,17.73,0,0,1,.94,5.75,18.09,18.09,0,0,1-8.08,15l-1.14.75A21.93,21.93,0,0,0,50,169.27a23.84,23.84,0,0,1,13.14,21.28v5.5L99,188.91l-3.78-1.52a20.78,20.78,0,0,1-13.08-19.32,19.68,19.68,0,0,1,.19-2.65l-2-1.26a24.58,24.58,0,0,1-10.87-20.34,24.34,24.34,0,0,1,9.79-19.51l15.47-11.62V100.38a25.49,25.49,0,0,1,36.95-22.86l7.26,3.59,7.26-3.59a25.46,25.46,0,0,1,36.94,22.86v12.31l15.47,11.62a24.41,24.41,0,0,1-1.07,39.85l-2,1.26a18.17,18.17,0,0,1,.19,2.65,20.78,20.78,0,0,1-13.07,19.32l-3.28,1.33,3.53.32,31.51,2.84v-1.33a24.21,24.21,0,0,1,13.39-21.28,21.92,21.92,0,0,0,2.4-37.83Z" fill="#656d78"/><path d="M198.6,124.31l-15.47-11.62v18.94a44.26,44.26,0,0,1-2.65,15.1,43.36,43.36,0,0,1-11.11,16.92,41.75,41.75,0,0,1-9.41,6.88,44.3,44.3,0,0,1-42.06,0,41.75,41.75,0,0,1-9.41-6.88,7.59,7.59,0,0,1-.82-.76,44.22,44.22,0,0,1-13-31.26V112.69L79.25,124.31a24.34,24.34,0,0,0-9.79,19.51,24.58,24.58,0,0,0,10.87,20.34l2,1.26a19.68,19.68,0,0,0-.19,2.65,20.78,20.78,0,0,0,13.08,19.32L99,188.91l9.29,3.73a17.63,17.63,0,0,0,2.9,5.49,18.33,18.33,0,0,0,9.92,6.38A26.12,26.12,0,0,1,138,218.09l1,1.95.95-1.95a26.09,26.09,0,0,1,16.92-13.58,18.27,18.27,0,0,0,9.91-6.38l2.91-5.49,9.79-3.92,3.28-1.33a20.78,20.78,0,0,0,13.07-19.32,18.17,18.17,0,0,0-.19-2.65l2-1.26a24.41,24.41,0,0,0,1.07-39.85Z" fill="#838f9b"/><path d="M117.9,170.53a41.75,41.75,0,0,1-9.41-6.88l1.14-5.37A25.22,25.22,0,0,1,134.38,138h9.09a25.23,25.23,0,0,1,24.76,20.33l1.14,5.37a41.75,41.75,0,0,1-9.41,6.88,44.3,44.3,0,0,1-42.06,0Z" fill="#838f9b"/><path d="M134.38,138a25.22,25.22,0,0,0-24.75,20.33l-1.14,5.37a7.59,7.59,0,0,1-.82-.76,44.22,44.22,0,0,1-13-31.26V100.38a25.49,25.49,0,0,1,36.95-22.86l7.26,3.59,7.26-3.59a25.46,25.46,0,0,1,36.94,22.86v31.25a44.26,44.26,0,0,1-2.65,15.1,43.36,43.36,0,0,1-11.11,16.92l-1.14-5.37A25.23,25.23,0,0,0,143.47,138h-9.09Z" fill="#f0d0b4"/><path d="M201.13,254.52v.07c-1.83,17.68-6.13,36.94-9.47,54.24a127.59,127.59,0,0,0-2.21,23.55,123.61,123.61,0,0,0,6.44,39.54l6.19,18.62H75.78L82,371.92a126.39,126.39,0,0,0,4.54-17.81l23.31,9.6a21.59,21.59,0,0,0,8,1.58,21.13,21.13,0,0,0,21.09-21.1v-6.56a16.49,16.49,0,0,0-1.77-7.39h.06l.26-.19a194.64,194.64,0,0,0,64.41-84.75c-.13,3-.38,6.06-.76,9.22Z" fill="#f0d0b4"/><path d="M182.94,189A175.69,175.69,0,0,1,84.11,295l-.63.25C80.14,278.46,76.73,260.77,76,245l-23.3,52.35a71.46,71.46,0,0,1,20.58,7.89L86.89,313l9.79,5.56a18.75,18.75,0,0,0,9.41,2.52h16.29a15.74,15.74,0,0,1,7.39,1.77,16.63,16.63,0,0,1,9.16,14.78v6.56a21.13,21.13,0,0,1-21.09,21.1,21.59,21.59,0,0,1-8-1.58l-23.31-9.6L25.13,328.85a30.53,30.53,0,0,1-18.82-28.1,29.2,29.2,0,0,1,1.58-9.6l24.19-72.69a31.65,31.65,0,0,1,23.81-21l7.26-1.45L99,188.91l9.29,3.73a17.63,17.63,0,0,0,2.9,5.49,18.33,18.33,0,0,0,9.92,6.38A26.12,26.12,0,0,1,138,218.09l1,1.95.95-1.95a26.09,26.09,0,0,1,16.92-13.58,18.27,18.27,0,0,0,9.91-6.38l2.91-5.49,9.79-3.92Z" fill="#f0d0b4"/><path d="M324.78,117.55,309.43,138l-27.15,72.37A44.15,44.15,0,0,1,240.91,239H204.22a193.84,193.84,0,0,0,10.23-47.11l31.83,2.9,31.58-69.46-5.75-8.65a25.24,25.24,0,0,1-3-22l.32-.89L275.33,76a11.09,11.09,0,0,1,10.48-7.51,11,11,0,0,1,11,11v20.59Z" fill="#f0d0b4"/><path d="M303.12,81.11l18.94-18.94,25.26,69.46-22.54-14.08-28-17.49V79.47a11,11,0,0,0-.88-4.29l3.41-1.71Z" fill="#fcd770"/><path d="M277.86,30.6l21.47,42.87-3.41,1.71a11,11,0,0,0-10.11-6.69A11.09,11.09,0,0,0,275.33,76l-5.87,17.74L252.6,106.37,227.34,18l37.89,31.57Z" fill="#fcd770"/><path d="M240.32,245.3h.59a50.75,50.75,0,0,0,47.3-32.77L315,141,326.32,126l33.21,20.75-34.93-96L304.85,70.46,278.64,18,263.87,40.19,215.63,0l33.42,116.94,12.8-9.61a31.51,31.51,0,0,0,5,12.83l3.83,5.75-28.27,62.18-20.93-1.9a17.84,17.84,0,0,1,9.22-11.27,28.23,28.23,0,0,0,3-48.73l-1.12-.75a11.81,11.81,0,0,1-4.65-13.54l3.92-11.75a34.93,34.93,0,0,0-12.18-39l-5-3.75c0-.09,0-.18,0-.28a24.5,24.5,0,0,0-7.23-17.44l-9.56-9.57a41.57,41.57,0,0,0-52.42-5.19l-6.57,4.38-6.57-4.38a41.57,41.57,0,0,0-52.42,5.19L70.37,39.7a24.49,24.49,0,0,0-7.22,17.44c0,.1,0,.19,0,.28l-5,3.75a35.1,35.1,0,0,0-14,27.93A34.62,34.62,0,0,0,46,100.15l3.92,11.74a11.9,11.9,0,0,1,.6,3.74,11.78,11.78,0,0,1-5.25,9.82l-1.13.75a28.21,28.21,0,0,0,3,48.72,17.36,17.36,0,0,1,9.65,15.62v.33l-2.21.44a38,38,0,0,0-28.51,25.17L1.88,289.15a36.68,36.68,0,0,0,20.83,45.51l56.52,23.27a119.09,119.09,0,0,1-3.22,12l-9,27H210.84l-9-27a118.83,118.83,0,0,1-4-59.87c.68-3.55,1.41-7.16,2.14-10.83l.33-1.71A185.35,185.35,0,0,0,226,355.77a95.27,95.27,0,0,0,63.41,41L296.8,398V362a39.16,39.16,0,0,1,21.77-35.22l12.58-6.29-13.06-5.22a151.5,151.5,0,0,1-77.77-69.92ZM303.12,90l16.39-16.4,15.61,42.92-32-20ZM269.36,74l-5.29,15.85-7.92,5.95L239,35.94l27.55,23,10.49-15.73,9.52,19A17.47,17.47,0,0,0,269.36,74ZM250.18,201.48l34.88-76.74-7.73-11.58a18.85,18.85,0,0,1-2.21-16.5L281.34,78a4.69,4.69,0,0,1,9.15,1.47v24.07l25.08,15.68-11.19,14.92-28,73.93a38,38,0,0,1-35.47,24.58h-28a200.68,200.68,0,0,0,7.1-33.93ZM132.61,317.18a22.88,22.88,0,0,0-10.21-2.41H106.07a12.68,12.68,0,0,1-6.27-1.67L92.61,309c-.08-.45-.15-.91-.24-1.37-.55-2.83-1.13-5.74-1.71-8.66a181.74,181.74,0,0,0,96.54-103.2l20.21,1.83a188.3,188.3,0,0,1-69,123.71A22.73,22.73,0,0,0,132.61,317.18Zm-54.77-18c.1.51.19,1,.29,1.51l-1.72-1a76.91,76.91,0,0,0-15.06-6.44l10.86-24.44c1.58,10,3.61,20.27,5.63,30.35ZM164.19,187a11.74,11.74,0,0,1-8.89,11.4,32.15,32.15,0,0,0-16.37,9.93,32.14,32.14,0,0,0-16.36-9.93,11.73,11.73,0,0,1-8.9-11.4,11.6,11.6,0,0,1,4.69-9.27,50.07,50.07,0,0,0,41.14,0A11.6,11.6,0,0,1,164.19,187Zm-62.81-3.93-3.84-1.54a14.5,14.5,0,0,1-2.8-25.45,50.9,50.9,0,0,0,12.42,14.79A24.24,24.24,0,0,0,101.38,183.07Zm-25.6-39.24A18.14,18.14,0,0,1,83,129.37l5.39-4.05v6.31A50.08,50.08,0,0,0,90,144l-2.14,1.43a27.34,27.34,0,0,0-8.44,9.06,17.91,17.91,0,0,1-3.65-10.68Zm63.15-55.66,10.06-5a19.23,19.23,0,0,1,27.83,17.2v31.29A37.64,37.64,0,0,1,172,150a31.54,31.54,0,0,0-26.8-18.21V119H132.61v12.79A31.57,31.57,0,0,0,105.82,150,37.6,37.6,0,0,1,101,131.63V100.34a19.25,19.25,0,0,1,19.23-19.23,19.45,19.45,0,0,1,8.6,2Zm-23.49,73.14.36-1.81a19,19,0,0,1,18.57-15.24h9.1a19,19,0,0,1,18.58,15.24l.36,1.81a37.69,37.69,0,0,1-47,0Zm67.67-5.24a14.5,14.5,0,0,1-2.79,25.46l-3.84,1.54a24.09,24.09,0,0,0-5.79-12.2,50.92,50.92,0,0,0,12.42-14.8Zm15.32-1.55a27.15,27.15,0,0,0-8.44-9.06L187.85,144a50.71,50.71,0,0,0,1.6-12.4v-6.31l5.39,4.05a18.15,18.15,0,0,1,7.24,14.46,18,18,0,0,1-3.65,10.69ZM152.5,35.45A29.45,29.45,0,0,1,189,39.06l9.57,9.57a12,12,0,0,1-3.12,19.28l-2.49,1.24,5.64,11.3,2.49-1.24a24.82,24.82,0,0,0,9.81-8.86l1.22.91a22.32,22.32,0,0,1,7.78,24.89L216,107.91a24.44,24.44,0,0,0,9.62,28l1.13.75A15.59,15.59,0,0,1,225,163.61,30.43,30.43,0,0,0,208.77,185L196.9,184A27.07,27.07,0,0,0,202,168.63a30.65,30.65,0,0,0,.39-49.37l-13-9.73v-9.19A31.76,31.76,0,0,0,145.24,71V40.29ZM52.82,163.61a15.59,15.59,0,0,1-1.68-26.91l1.13-.75a24.44,24.44,0,0,0,9.63-28L58,96.15a22.26,22.26,0,0,1,7.77-24.88L67,70.35a24.69,24.69,0,0,0,9.81,8.86l2.49,1.24,5.64-11.3-2.48-1.24A12.05,12.05,0,0,1,79.3,48.62l9.57-9.56a28.95,28.95,0,0,1,36.49-3.61l7.25,4.84V71a31.76,31.76,0,0,0-44.2,29.31v9.19l-13,9.73a30.66,30.66,0,0,0,.39,49.37,27,27,0,0,0,6.56,17.13l-13.07,2.61a29.87,29.87,0,0,0-16.49-24.76ZM12.63,300.75a24.3,24.3,0,0,1,1.23-7.61l24.23-72.66a25.33,25.33,0,0,1,19-16.79l41.23-8.24,5.17,2.06a24.27,24.27,0,0,0,16,13.14,19.55,19.55,0,0,1,12.8,10.26l6.63,13.25,6.62-13.25a19.59,19.59,0,0,1,12.8-10.27,24.2,24.2,0,0,0,12.16-7.39,169.16,169.16,0,0,1-82.36,83c-3.23-16.62-6.06-33.26-6.06-47.79v-5.79H69.46v5.79c0,1.71.07,3.45.14,5.19L48.85,290.34a77.09,77.09,0,0,0-11-.83v12.63a65.14,65.14,0,0,1,32.26,8.56l23.39,13.36a25.33,25.33,0,0,0,12.53,3.34H122.4a10.27,10.27,0,0,1,4.57,1.08,10.14,10.14,0,0,1,5.64,9.13v6.58a14.75,14.75,0,0,1-20.39,13.66L27.51,323a24,24,0,0,1-14.88-22.23Zm71.91,83.48L88,373.89c1.21-3.63,2.21-7.34,3.1-11.07l16.32,6.72a27.41,27.41,0,0,0,37.83-25.35v-6.58a22.46,22.46,0,0,0-.63-5.14,200.61,200.61,0,0,0,46-50.89c-1,5.05-1.94,10.12-3,15.14-.73,3.69-1.46,7.34-2.15,10.9a131.47,131.47,0,0,0,4.38,66.27l3.45,10.34Zm209-52.05a93.22,93.22,0,0,1-48.19-39.61l-10.83,6.5a105.8,105.8,0,0,0,53.07,44.33,52.33,52.33,0,0,0-3.17,13.32,67.21,67.21,0,0,1-29.8-22.38l-3.32-4.42-10.1,7.58,3.32,4.42A79.88,79.88,0,0,0,284.16,370v12.74a82.66,82.66,0,0,1-47.62-34,172.78,172.78,0,0,1-29.06-93.08l0-1.25h0c.26-2.67.55-5.34.69-8,.16-.39.33-.79.48-1.18h17.55a164,164,0,0,0,76.48,76.88,51.37,51.37,0,0,0-9.05,10Z"/></g></g></svg>