<svg xmlns="http://www.w3.org/2000/svg" viewBox="0 0 277.33 326.1"><title>king</title><g id="Layer_2" data-name="Layer 2"><g id="Layer_2-2" data-name="Layer 2"><path d="M26.81,211A34.87,34.87,0,0,0,4.89,243.28l-.11,78H74.69V191.94L26.81,211Z" fill="#dd636e"/><path d="M138.66,233l-34.18-30.84v119.2h68.37V202.13Z" fill="#fff"/><path d="M104.48,308.59h68.37v12.74H104.48Z" fill="#f1f1f4"/><path d="M272.44,243.28A34.86,34.86,0,0,0,250.51,211l-47.87-19V321.33h69.91Z" fill="#dd636e"/><path d="M272.44,243.28A34.86,34.86,0,0,0,250.51,211L236,205.17a34.86,34.86,0,0,1,11,25.37l.08,50.7a27.31,27.31,0,0,1-27.31,27.35H202.64v12.74h69.91Z" fill="#da4a54"/><path d="M83.82,183.49l-4.91,1.8a6.45,6.45,0,0,0-4.22,6.05v130h29.79V202.13Z" fill="#f4e2c1"/><path d="M198.41,185.29l-4.9-1.8-20.66,18.64v119.2h29.79v-130A6.45,6.45,0,0,0,198.41,185.29Z" fill="#f4e2c1"/><path d="M138.66,233l-9.49-8.56v96.92h19V224.41Z" fill="#f9f48e"/><path d="M4.78,321.33H74.69V308.59H4.79Z" fill="#da4a54"/><path d="M74.69,308.59h29.79v12.74H74.69Z" fill="#f4ddb1"/><path d="M172.85,308.59h29.79v12.74H172.85Z" fill="#f4ddb1"/><path d="M129.17,308.59h19v12.74h-19Z" fill="#f6e738"/><path d="M201.94,80.86H75.39a7.25,7.25,0,0,1-7.24-7.25v-3a7.24,7.24,0,0,1,7.24-7.24H201.94a7.24,7.24,0,0,1,7.24,7.24v3A7.25,7.25,0,0,1,201.94,80.86Z" fill="#f9f48e"/><path d="M178.2,26.88a10.18,10.18,0,1,1-15,.11L138.66,4.78,114.12,27a10.17,10.17,0,1,1-15-.11L75.39,4.78V63.32H201.94V4.78Z" fill="#f9f48e"/><path d="M178.2,26.88a10.17,10.17,0,0,1-1.74,15.36v.37a8,8,0,0,1-8,8H75.39V63.32H201.94V4.78Z" fill="#f6e738"/><path d="M195.52,135.72H193.7l2.74-37.29h9.87A12.56,12.56,0,0,1,218.87,111v1.38a23.35,23.35,0,0,1-23.35,23.35Z" fill="#f1d0a5"/><path d="M81.81,135.72h1.82L80.88,98.43H71A12.56,12.56,0,0,0,58.46,111v1.38a23.34,23.34,0,0,0,23.35,23.35Z" fill="#f1d0a5"/><path d="M193.7,135.72l3.51-47.6a60.8,60.8,0,0,0,.09-7.26h-17a41.59,41.59,0,0,1,0,6l-3.11,42.27a10.2,10.2,0,0,1-11.58,9.36,195.21,195.21,0,0,0-26.68-1.83h-.41a195.47,195.47,0,0,0-26.69,1.83,10.2,10.2,0,0,1-11.57-9.36L97.09,86.87a41.59,41.59,0,0,1,0-6H80a60.8,60.8,0,0,0,.09,7.26l3.51,47.6-10.2,29.36a11,11,0,0,0,3,11.76L138.66,233l62.22-56.13a11,11,0,0,0,3-11.76Z" fill="#fbf6ec"/><path d="M203.89,165.08,193.7,135.72l3.5-47.6a60.83,60.83,0,0,0,.1-7.26h-17a41.59,41.59,0,0,1,0,6l-3.11,42.27a10.19,10.19,0,0,1-4.17,7.5l3.41,9.81a20.4,20.4,0,0,1-5.6,21.83l-51.9,46.83L138.66,233l62.22-56.13a11,11,0,0,0,3-11.76Z" fill="#f9efda"/><path d="M97.09,86.87l3.11,42.27a10.2,10.2,0,0,0,11.57,9.36,195.47,195.47,0,0,1,26.69-1.83h.41a195.21,195.21,0,0,1,26.68,1.83,10.2,10.2,0,0,0,11.58-9.36l3.11-42.27a41.59,41.59,0,0,0,0-6H97.07a41.59,41.59,0,0,0,0,6Z" fill="#f1d0a5"/><path d="M180.26,80.86H167l-2.62,35.54a10.2,10.2,0,0,1-11.57,9.36,197.07,197.07,0,0,0-26.69-1.83h-.41a195,195,0,0,0-25.78,1.71l.26,3.5a10.2,10.2,0,0,0,11.57,9.36,195.47,195.47,0,0,1,26.69-1.83h.41a195.21,195.21,0,0,1,26.68,1.83,10.2,10.2,0,0,0,11.58-9.36l3.11-42.27a41.59,41.59,0,0,0,0-6Z" fill="#f1b986"/><path d="M158.25,159.79a4.78,4.78,0,0,0,.65-9.51,149.41,149.41,0,0,0-40.47,0,4.78,4.78,0,1,0,1.31,9.47,142.1,142.1,0,0,1,38.51,0Z"/><path d="M133.64,165.05a4.78,4.78,0,1,0,0,9.55h10.05a4.78,4.78,0,1,0,0-9.55Z"/><path d="M277.33,321.32l-.11-78a39.49,39.49,0,0,0-24.93-36.76c0,.08.17.07-1.53-.6l-43.7-17.35a11.32,11.32,0,0,0-4.72-6.61l1.74-1.56a15.74,15.74,0,0,0,4.33-16.87l-.29-.84a4.78,4.78,0,0,0-9,3.13l.29.84a6.2,6.2,0,0,1-1.7,6.64l-47.07,42.47,12.08-30.51a4.78,4.78,0,0,0-8.89-3.52L138.66,220l-15.14-38.26a4.77,4.77,0,0,0-8.88,3.51l12.08,30.52L79.65,173.29a6.2,6.2,0,0,1-1.7-6.64l10.16-29.26a5,5,0,0,0,.3-1.63c0-1.33-3.53-47.12-3.64-50.13h7.46c0,1.13-.21-2.55,3.21,43.86a15,15,0,0,0,17,13.74,193.63,193.63,0,0,1,52.47,0,15,15,0,0,0,17-13.74c3.42-46.42,3.16-42.73,3.21-43.86h7.46c-.08,2.35-3.65,49.56-3.63,50.22a4.68,4.68,0,0,0,.29,1.54l2.57,7.4a4.78,4.78,0,0,0,9-3.13l-.54-1.57a28.16,28.16,0,0,0,23.37-27.72V111a17.35,17.35,0,0,0-17.34-17.33h-4.72c.31-4.29.47-6,.53-8a12,12,0,0,0,11.84-12v-3a12,12,0,0,0-7.25-11V4.78a4.78,4.78,0,0,0-8-3.5L175,23.38a4.79,4.79,0,0,0-.24,6.76,5.39,5.39,0,1,1-8,.05,4.79,4.79,0,0,0-.33-6.75L141.87,1.24a4.77,4.77,0,0,0-6.41,0L110.91,23.45a4.77,4.77,0,0,0-.33,6.74,5.4,5.4,0,1,1-8-.05,4.78,4.78,0,0,0-.24-6.76L78.65,1.28a4.78,4.78,0,0,0-8,3.5V59.53a12.05,12.05,0,0,0-7.25,11v3a12,12,0,0,0,11.84,12c.06,2,.18,3.24.53,8H71A17.35,17.35,0,0,0,53.68,111v1.38a28.16,28.16,0,0,0,23.37,27.72l-8.13,23.42a15.75,15.75,0,0,0,4.33,16.88L75,182a11.28,11.28,0,0,0-4.72,6.61l-43.7,17.35c-1.7.67-1.5.68-1.53.6A39.49,39.49,0,0,0,.11,243.27l-.11,78a4.78,4.78,0,0,0,4.78,4.78H272.55a4.78,4.78,0,0,0,4.78-4.78Zm-109.26-4.77H152.93v-90l15.14-13.66Zm-32.61-80a4.78,4.78,0,0,0,6.22.15c.14-.11-.06.07,1.7-1.52v81.4H134v-81.4Zm30.75-102.75c-4.93-.68-9.9-1.17-14.88-1.48a13.17,13.17,0,0,0,.67-4.18V111.24a3.79,3.79,0,0,1,3.79-3.79c18.53,0,17.39.06,18.15-.12l-1.58,21.46a5.42,5.42,0,0,1-6.15,5Zm8.4-35.53a4.68,4.68,0,0,0-1.76-.34H155.79a13.35,13.35,0,0,0-13.34,13.34v16.87a3.79,3.79,0,0,1-3.79,3.79,201.16,201.16,0,0,0-27.54,1.87,5.42,5.42,0,0,1-6.15-5l-1.58-21.46c.76.18-1.32.12,26.71.12a4.78,4.78,0,1,0,0-9.55H104.48a4.68,4.68,0,0,0-1.76.34c-.85-11.48-.89-11.91-.92-12.61h73.73c0,.67.05-.57-.92,12.61Zm31.7,5a7.79,7.79,0,0,1,7.78,7.78v1.38a18.6,18.6,0,0,1-15.23,18.27l2-27.43ZM72.93,73.61v-3a2.46,2.46,0,0,1,2.46-2.46h89a4.78,4.78,0,1,0,0-9.56H80.17V15.75L93,27.65a15,15,0,1,0,27.34.2l18.37-16.63L157,27.85a15,15,0,1,0,27.34-.2l12.78-11.9V58.54H186.73a4.78,4.78,0,0,0,0,9.56h15.21a2.46,2.46,0,0,1,2.46,2.46v3a2.47,2.47,0,0,1-2.46,2.47H75.39a2.47,2.47,0,0,1-2.46-2.47Zm-9.69,38.76V111A7.79,7.79,0,0,1,71,103.21h5.43l2,27.43A18.59,18.59,0,0,1,63.24,112.37ZM9.67,243.28a29.93,29.93,0,0,1,18.92-27.89L69.91,199V316.55H54V272.39a4.78,4.78,0,0,0-9.56,0v44.16H9.56Zm69.8-51.94a1.68,1.68,0,0,1,1.09-1.57l2.2-.81L99.7,204.25v16a4.78,4.78,0,1,0,9.56,0v-7.36l15.14,13.66v90H109.26v-74a4.78,4.78,0,1,0-9.56,0v74H79.47V191.34Zm98.16,12.91L194.57,189l2.2.81a1.68,1.68,0,0,1,1.09,1.57V316.55H177.63V204.25Zm55.26,112.3V272.39a4.78,4.78,0,0,0-9.55,0v44.16H207.42V199l41.32,16.4a30,30,0,0,1,18.92,27.9l.11,73.27Z"/></g></g></svg>