<svg xmlns="http://www.w3.org/2000/svg" viewBox="0 0 314.34 340.67"><title>knight</title><g id="Layer_2" data-name="Layer 2"><g id="Layer_2-2" data-name="Layer 2"><path d="M242,114.56H93.22a2.42,2.42,0,0,1-2.42-2.41V81.59a5.5,5.5,0,0,1,3.88-5.25l65.47-20.06a25.26,25.26,0,0,1,14.86,0l65.47,20.06a5.49,5.49,0,0,1,3.88,5.25v30.56A2.4,2.4,0,0,1,242,114.56Z" fill="#f1f1f4"/><path d="M240.48,76.34l-22.73-7v11.3a20.59,20.59,0,0,1-20.59,20.59H90.8v10.89a2.41,2.41,0,0,0,2.42,2.41H242a2.42,2.42,0,0,0,2.42-2.41V81.59A5.5,5.5,0,0,0,240.48,76.34Z" fill="#dfdde2"/><path d="M112.41,160.47c6.72,25.74,38.81,43.05,55.17,43.05s48.46-17.31,55.18-43.05V114.56H112.41Z" fill="#ffece4"/><path d="M196.15,114.56v32.6c-6.72,25.74-38.82,43.05-55.18,43.05a34.43,34.43,0,0,1-8-1.07c11.72,9.09,25.58,14.38,34.62,14.38,16.36,0,48.46-17.31,55.18-43.05V114.56Z" fill="#ffddce"/><path d="M250.39,96.71h-6v15.44a2.42,2.42,0,0,1-2.41,2.42H240v23.82h10.37A10.6,10.6,0,0,0,261,127.79V107.32A10.61,10.61,0,0,0,250.39,96.71Z" fill="#afaab4"/><path d="M90.8,112.15V96.71h-6a10.61,10.61,0,0,0-10.6,10.61v20.47a10.6,10.6,0,0,0,10.6,10.6H95.15V114.57H93.22A2.43,2.43,0,0,1,90.8,112.15Z" fill="#afaab4"/><path d="M190.16,27.21l-22.58,10L145,27.21l13.3-21.4A1.72,1.72,0,0,1,159.77,5H175.4a1.73,1.73,0,0,1,1.47.82Z" fill="#f1f1f4"/><path d="M237,75.27l-62-19a25.26,25.26,0,0,0-14.86,0l-62,19A72.64,72.64,0,0,1,145,27.2l22.58,10,22.58-10A72.58,72.58,0,0,1,237,75.27Z" fill="#c6c1c8"/><path d="M95.15,166.09a15.13,15.13,0,0,0,9.68,14.11l7.58,2.92V114.56H95.15Z" fill="#c6c1c8"/><path d="M222.76,114.56v68.56l7.58-2.92A15.13,15.13,0,0,0,240,166.09V114.56Z" fill="#c6c1c8"/><path d="M298.83,283.88,249,300.36V216.09a7.37,7.37,0,0,1,7.36-7.36h8.37a44.66,44.66,0,0,1,44.66,44.66v15.94a15.33,15.33,0,0,1-10.52,14.55Z" fill="#f1f1f4"/><path d="M167.58,235.78a30.87,30.87,0,0,1-30.87-30.86v20a30.87,30.87,0,1,0,61.74,0v-20A30.87,30.87,0,0,1,167.58,235.78Z" fill="#665e66"/><path d="M136.71,191.88v13a30.87,30.87,0,1,0,61.74,0v-13c-10.82,7.4-22.77,11.64-30.87,11.64s-20-4.24-30.87-11.64Z" fill="#ffece4"/><path d="M249,300.36v22a13.3,13.3,0,0,1-13.3,13.31h57V285.9Z" fill="#c6c1c8"/><path d="M61,314.18H13.59V144.54l23.69-27,23.69,27Z" fill="#f1f1f4"/><path d="M37.28,117.55l-4.14,4.72.85,1a28.29,28.29,0,0,1,7,18.64V279.25a21.62,21.62,0,0,1-21.62,21.62h-5.8v13.31H61V144.54Z" fill="#dfdde2"/><path d="M5,314.18H69.57v21.5H5Z" fill="#665e66"/><path d="M78.85,208.73H70.47a44.39,44.39,0,0,0-9.5,1V292l25.23,8.34V216.09A7.36,7.36,0,0,0,78.85,208.73Z" fill="#f1f1f4"/><path d="M99.51,335.68A13.31,13.31,0,0,1,86.2,322.37v-22L61,292v22.16h8.6v21.5Z" fill="#c6c1c8"/><path d="M227.73,231.32a60.15,60.15,0,1,1-120.3,0V214.84a15.1,15.1,0,0,1,15.09-15.09h14.2v25.13a30.87,30.87,0,1,0,61.73,0V199.75h14.2a15.09,15.09,0,0,1,15.08,15.09Z" fill="#f1f1f4"/><path d="M212.65,199.75H201a15.05,15.05,0,0,1,.11,1.78V218A60.15,60.15,0,0,1,141,278.16a60.78,60.78,0,0,1-12.74-1.35,60.15,60.15,0,0,0,99.5-45.49V214.84A15.09,15.09,0,0,0,212.65,199.75Z" fill="#dfdde2"/><path d="M227.73,231.32a60.15,60.15,0,1,1-120.3,0V218.05H86.2V322.37a13.31,13.31,0,0,0,13.31,13.31H235.66A13.3,13.3,0,0,0,249,322.37V218.05H227.73Z" fill="#c6c1c8"/><path d="M227.73,218.05v13.27a59.91,59.91,0,0,1-5.38,24.91V290.4a32,32,0,0,1-32,32H86.2a13.31,13.31,0,0,0,13.31,13.31H235.66A13.3,13.3,0,0,0,249,322.37V218.05Z" fill="#afaab4"/><path d="M107.43,102.92a5,5,0,0,0,5-5v-8.1a5,5,0,0,0-10,0v8.1A5,5,0,0,0,107.43,102.92Z"/><path d="M127.49,102.92a5,5,0,0,0,5-5V83.68a5,5,0,1,0-10,0V97.93A5,5,0,0,0,127.49,102.92Z"/><path d="M147.54,102.92a5,5,0,0,0,5-5V77.54a5,5,0,0,0-10,0V97.93A5,5,0,0,0,147.54,102.92Z"/><path d="M167.58,102.92a5,5,0,0,0,5-5V71.8a5,5,0,1,0-10,0V97.93A5,5,0,0,0,167.58,102.92Z"/><path d="M187.63,102.92a5,5,0,0,0,5-5V77.54a5,5,0,0,0-10,0V97.93A5,5,0,0,0,187.63,102.92Z"/><path d="M207.68,102.92a5,5,0,0,0,5-5V83.68a5,5,0,1,0-10,0V97.93A5,5,0,0,0,207.68,102.92Z"/><path d="M227.73,102.92a5,5,0,0,0,5-5v-8.1a5,5,0,0,0-10,0v8.1A5,5,0,0,0,227.73,102.92Z"/><path d="M194.33,169.82a5,5,0,1,0-3.47-9.36,67,67,0,0,1-46.56,0,5,5,0,0,0-3.47,9.36A76.94,76.94,0,0,0,194.33,169.82Z"/><path d="M5,340.67H292.71a5,5,0,0,0,5-5V289.51l2.7-.89a20.29,20.29,0,0,0,13.94-19.29V253.39a49.7,49.7,0,0,0-49.65-49.65h-8.37a12.38,12.38,0,0,0-12,9.32h-11.7a20.11,20.11,0,0,0-20-18.3h-9.21v-.3a73.6,73.6,0,0,0,14.33-13.64v2.3a5,5,0,0,0,6.79,4.65l7.57-2.92A20.24,20.24,0,0,0,245,166.09V143.38h5.38A15.61,15.61,0,0,0,266,127.79V107.32a15.62,15.62,0,0,0-15.6-15.6h-1V81.59a10.41,10.41,0,0,0-7.41-10l-1-.3a76.44,76.44,0,0,0-8-16.79,5,5,0,0,0-8.41,5.37,66.28,66.28,0,0,1,4.21,7.66l-52.24-16a30.11,30.11,0,0,0-17.78,0l-52.24,16a67.45,67.45,0,0,1,38.32-35l20.8,9.19a5,5,0,0,0,4,0l20.8-9.19A67,67,0,0,1,210,43.63a5,5,0,1,0,6.28-7.76,77,77,0,0,0-22.84-12.81L181.11,3.17A6.7,6.7,0,0,0,175.4,0H159.77a6.68,6.68,0,0,0-5.71,3.17L141.7,23.06A77.42,77.42,0,0,0,94.21,71.27l-1,.3a10.43,10.43,0,0,0-7.41,10V91.72h-1a15.61,15.61,0,0,0-15.59,15.6v20.47a15.61,15.61,0,0,0,15.59,15.6h5.39v22.7A20.22,20.22,0,0,0,103,184.85l7.58,2.93a5,5,0,0,0,6.78-4.66v-2.3a73.59,73.59,0,0,0,14.33,13.64v.3h-9.2a20.11,20.11,0,0,0-20,18.3H90.82a12.38,12.38,0,0,0-12-9.32c-6.81,0-9.71-.08-12.89.21V144.54a5,5,0,0,0-1.24-3.29L41,114.26a5,5,0,0,0-7.5,0l-23.69,27a5,5,0,0,0-1.24,3.29v9a5,5,0,0,0,10,0v-7.16l18.7-21.3L56,146.42V309.19H42.27V159a5,5,0,0,0-10,0V309.19H18.58V176.87a5,5,0,0,0-10,0V309.19H5a5,5,0,0,0-5,5v21.5a5,5,0,0,0,5,5ZM161.58,10h12l9.31,15-15.32,6.77L152.27,25ZM287.72,330.69H252a18.18,18.18,0,0,0,2-8.32V304l33.77-11.16ZM254,216.09a2.38,2.38,0,0,1,2.37-2.37h8.37a39.72,39.72,0,0,1,39.67,39.67v15.94a10.31,10.31,0,0,1-7.09,9.81c-.07,0,1.89-.63-43.32,14.32Zm-60.49-11.17a25.88,25.88,0,0,1-51.76,0v-4.17c9.11,4.89,18.51,7.76,25.88,7.76s16.77-2.87,25.88-7.76Zm-.57,25.38a25.88,25.88,0,0,1-50.61,0A35.8,35.8,0,0,0,192.89,230.3ZM235,166.09a10.18,10.18,0,0,1-6.49,9.45l-.79.31V119.56H235v46.53Zm15.36-64.39a5.62,5.62,0,0,1,5.62,5.62v20.47a5.62,5.62,0,0,1-5.62,5.61H245V118.89a7.4,7.4,0,0,0,4.28-5.79c.09-.71.06,0,.06-11.4ZM161.62,61.05a20.22,20.22,0,0,1,11.93,0L239,81.11a.5.5,0,0,1,.35.48v28H95.79v-28a.51.51,0,0,1,.36-.48ZM84.77,133.4a5.61,5.61,0,0,1-5.61-5.61V107.32a5.62,5.62,0,0,1,5.61-5.62h1c0,11.28,0,11,.15,11.92a7.42,7.42,0,0,0,4.2,5.27V133.4Zm21.85,42.14a10.19,10.19,0,0,1-6.48-9.45V119.56h7.27v56.29ZM117.4,159.8V119.56H171v19.9a3.39,3.39,0,0,1-3.39,3.39,5,5,0,0,0,0,10A13.38,13.38,0,0,0,181,139.46v-19.9h36.82V159.8c-3.21,11.45-12.19,21.16-22.09,27.93-7.6,5.1-19.14,10.8-28.1,10.8s-20.53-5.7-28.09-10.8c-9.86-6.74-18.87-16.44-22.09-27.93Zm-5,55a10.11,10.11,0,0,1,10.1-10.1h9.2v20.14a35.86,35.86,0,1,0,71.72,0V204.74h9.21a10.11,10.11,0,0,1,10.09,10.1c0,18.18.08,18.63-.29,22.22a5,5,0,0,0,9.93,1c.43-4.25.34-6.63.34-15H244v99.33a8.33,8.33,0,0,1-8.32,8.32H172.57V308.1a5,5,0,1,0-10,0v22.59H99.51a8.33,8.33,0,0,1-8.32-8.32V223h11.25v8.28a65.15,65.15,0,0,0,122.27,31.32,5,5,0,0,0-8.75-4.81,55.17,55.17,0,0,1-103.54-26.51V214.84Zm-33.57-1.12a2.37,2.37,0,0,1,2.36,2.37v77.37l-15.25-5V214C69.13,213.62,71,213.72,78.85,213.72ZM66,298.93l15.25,5v18.4a18.19,18.19,0,0,0,2,8.32H74.56V314.18a5,5,0,0,0-5-5H66Zm-1.38,20.24v11.52H10V319.17Z"/></g></g></svg>