<svg xmlns="http://www.w3.org/2000/svg" viewBox="0 0 332.66 332.66"><title>newborn</title><g id="Layer_2" data-name="Layer 2"><g id="Layer_2-2" data-name="Layer 2"><path d="M294.6,42.82a4.76,4.76,0,0,1-3.37-8.12l8.39-8.38a53,53,0,0,1,22.63-13.39,4.76,4.76,0,0,1,2.65,9.14,43.45,43.45,0,0,0-18.56,11L298,41.43A4.78,4.78,0,0,1,294.6,42.82Z" fill="#495059" stroke="#000" stroke-miterlimit="10" stroke-width="8"/><circle cx="171.65" cy="37.07" r="33.07" fill="#f5d7b7" stroke="#000" stroke-miterlimit="10" stroke-width="8"/><circle cx="171.65" cy="37.07" r="33.07" stroke="#000" stroke-miterlimit="10" stroke-width="8" opacity="0.1" style="isolation:isolate"/><circle cx="295.59" cy="161.01" r="33.07" fill="#f5d7b7" stroke="#000" stroke-miterlimit="10" stroke-width="8"/><circle cx="295.59" cy="161.01" r="33.07" stroke="#000" stroke-miterlimit="10" stroke-width="8" opacity="0.1" style="isolation:isolate"/><circle cx="67.71" cy="264.95" r="63.71" fill="#38648c" stroke="#000" stroke-miterlimit="10" stroke-width="8"/><path d="M112.75,310A63.71,63.71,0,1,0,4.83,254.77C10,258.46,17.26,262,27.08,265.83c8.3,3.21,18.43,6.54,29.9,9.85,3.3,11.47,6.64,21.6,9.84,29.9,3.8,9.82,7.38,17.06,11.06,22.25A63.42,63.42,0,0,0,112.75,310Z" stroke="#000" stroke-miterlimit="10" stroke-width="8" opacity="0.1" style="isolation:isolate"/><ellipse cx="231.37" cy="101.28" rx="97.64" ry="95.5" transform="translate(-3.85 193.27) rotate(-45)" fill="#f5d7b7" stroke="#000" stroke-miterlimit="10" stroke-width="8"/><path d="M205.44,8.84a98.89,98.89,0,0,0-41.59,24.91C125.72,71.88,125,133,162.34,170.32A94.59,94.59,0,0,0,242.12,197C181.26,176.78,162.62,75.15,205.44,8.84Z" stroke="#000" stroke-miterlimit="10" stroke-width="8" opacity="0.05" style="isolation:isolate"/><path d="M86.55,144.05c38.88.47,126.75,9.72,177.34,36.13a17.61,17.61,0,0,1,8.34,21.8c-7.94,21.14-28.88,52.37-48,71.16a48.32,48.32,0,0,1-36.54,13.69c-53.47-3-171.44-30.2-180-47.8-8.73-17.87,18.69-63.87,51.47-86.66A47.07,47.07,0,0,1,86.55,144.05Z" fill="#76b7eb" stroke="#000" stroke-miterlimit="10" stroke-width="8"/><path d="M86.55,144.05c38.88.47,126.75,9.72,177.34,36.13a17.61,17.61,0,0,1,8.34,21.8c-7.94,21.14-28.88,52.37-48,71.16a48.32,48.32,0,0,1-36.54,13.69c-53.47-3-171.44-30.2-180-47.8-8.73-17.87,18.69-63.87,51.47-86.66A47.07,47.07,0,0,1,86.55,144.05Z" stroke="#000" stroke-miterlimit="10" stroke-width="8" opacity="0.1" style="isolation:isolate"/><path d="M59.09,152.37A138.46,138.46,0,0,0,35.46,173.6a779.62,779.62,0,0,0,16,81.48c.48,1.89,1,3.74,1.43,5.58C94,273.26,153.06,284.75,187,286.78c1.45-1.87,2.85-3.76,4.18-5.66A60,60,0,0,0,201.84,246c-.21-16.91-2.44-51.81-9-89.33-40.6-8.73-82.55-12.29-106.27-12.57A47.07,47.07,0,0,0,59.09,152.37Z" stroke="#000" stroke-miterlimit="10" stroke-width="8" opacity="0.1" style="isolation:isolate"/><path d="M188.61,246.11c-.47-38.88-9.73-126.75-36.13-177.34a17.6,17.6,0,0,0-21.8-8.34c-21.14,7.94-52.37,28.88-71.17,48A48.31,48.31,0,0,0,45.83,145c3,53.47,30.2,171.44,47.8,180,17.87,8.73,63.87-18.69,86.66-51.47A47.16,47.16,0,0,0,188.61,246.11Z" fill="#76b7eb" stroke="#000" stroke-miterlimit="10" stroke-width="8"/><g opacity="0.1"><path d="M77.12,208.64a4.76,4.76,0,0,1-4.66-3.83c-.4-2-2.3-14.4-2.3-16.8a4.76,4.76,0,0,1,9.51,0c.06,1.57,1.64,12.58,2.12,15a4.76,4.76,0,0,1-3.73,5.59A4.36,4.36,0,0,1,77.12,208.64ZM79.67,188h0Z" stroke="#000" stroke-miterlimit="10" stroke-width="8"/><path d="M128.88,122.22a4.69,4.69,0,0,1-1.51-.25,4.77,4.77,0,0,1-3-6c.35-1,1.3-3,3.42-7.38.59-1.2,1.14-2.34,1.34-2.78a4.76,4.76,0,0,1,8.67,3.92c-.26.57-.79,1.66-1.46,3-.93,1.9-2.67,5.45-3,6.24A4.74,4.74,0,0,1,128.88,122.22Z" stroke="#000" stroke-miterlimit="10" stroke-width="8"/><path d="M151,214.87a4.68,4.68,0,0,1-2.38-.64c-2.32-1.35-8.82-5.06-10.93-6a4.76,4.76,0,0,1,3.95-8.66c2.91,1.33,10.86,5.93,11.76,6.45a4.76,4.76,0,0,1-2.4,8.87Z" stroke="#000" stroke-miterlimit="10" stroke-width="8"/><path d="M118.42,294.62a4.76,4.76,0,0,1-4.76-4.75c0-2.62-.68-12.5-1-17.25-.11-1.53-.18-2.68-.22-3.18a4.76,4.76,0,0,1,9.5-.57c0,.49.11,1.61.21,3.09.5,7.24,1,15.19,1,17.91A4.75,4.75,0,0,1,118.42,294.62Z" stroke="#000" stroke-miterlimit="10" stroke-width="8"/><path d="M212.35,211.76a4.76,4.76,0,0,1-1.58-9.25,77.26,77.26,0,0,0,8.93-4.9c4.14-2.48,5.51-3.28,6.87-3.55a4.76,4.76,0,0,1,2.34,9.21c-.71.34-2.79,1.58-4.32,2.5-3.72,2.23-7.93,4.75-10.66,5.71A4.62,4.62,0,0,1,212.35,211.76Zm16.09-8.37Z" stroke="#000" stroke-miterlimit="10" stroke-width="8"/></g></g></g></svg>