<svg xmlns="http://www.w3.org/2000/svg" viewBox="0 0 349.96 412.59"><title>wizard</title><g id="Layer_2" data-name="Layer 2"><g id="Layer_2-2" data-name="Layer 2"><path d="M226.1,38.44h11.62a26.62,26.62,0,0,0,26.62-26.62V6h-60.7a15.59,15.59,0,0,0-14.7,10.4L150.23,126.11H257.05Z" fill="#8993da"/><path d="M150.23,126.11l-9.53,27H266.57l-9.53-27Z" fill="#f9f48e"/><path d="M270.37,187.9h-9.73l-.93,12.61,8.49,22.56a23,23,0,0,0,14.56-21.43v-1.35a12.38,12.38,0,0,0-12.39-12.39Z" fill="#eaac9d"/><path d="M139.08,223.07l8.48-22.56-.93-12.61H136.9a12.39,12.39,0,0,0-12.39,12.39v1.35A23,23,0,0,0,139.08,223.07Z" fill="#eaac9d"/><path d="M255.16,238.57A40.17,40.17,0,0,0,220.8,219.2H186.48a40.18,40.18,0,0,0-34.37,19.37l-2.45,4.06H179a93.93,93.93,0,0,0,24.62-3.29,93.85,93.85,0,0,0,24.61,3.29h29.36Z" fill="#f1f1f4"/><path d="M228.25,242.63a93.85,93.85,0,0,1-24.61-3.29A93.93,93.93,0,0,1,179,242.63H161.77l7.56,22.4a9.85,9.85,0,0,0,13.49,5.78l12.77-5.94a19.09,19.09,0,0,1,16.09,0l12.78,5.94A9.84,9.84,0,0,0,237.94,265l7.56-22.4Z" fill="#ffcbbe"/><path d="M146.63,187.9l.93,12.61,10.34,30.63a40.15,40.15,0,0,1,28.58-11.94H220.8a40.19,40.19,0,0,1,28.58,11.94l10.33-30.63.93-12.61Z" fill="#ffcbbe"/><path d="M275.8,243.3l-16.09-42.79-10.33,30.63a40.52,40.52,0,0,1,5.78,7.43l2.45,4.06H245.5L237.94,265a9.84,9.84,0,0,1-13.48,5.78l-12.78-5.94a19.07,19.07,0,0,0-16.08,0l-12.78,5.94A9.86,9.86,0,0,1,169.33,265l-7.55-22.4H149.66l2.45-4.06a40.14,40.14,0,0,1,5.79-7.43l-10.34-30.63L131.48,243.3a32.4,32.4,0,0,0,3.09,28.95l69.07,107.12,69.07-107.12a32.4,32.4,0,0,0,3.09-28.95Z" fill="#dfdde2"/><path d="M275.8,243.3l-16.09-42.79-8.57,25.39.49,1.28a32.63,32.63,0,0,1,2,9c.54.77,1.06,1.56,1.55,2.37l2.46,4.06h-4.18a32.43,32.43,0,0,1-4.91,13.5l-62.18,96.43,17.29,26.81L272.7,272.25a32.37,32.37,0,0,0,3.1-28.95Z" fill="#c6c1c8"/><path d="M74.78,234.29H47a9.56,9.56,0,0,0,0,19.12H74.78a9.56,9.56,0,1,0,0-19.12Z" fill="#f9f48e"/><path d="M49.89,253.42h22V406.55h-22Z" fill="#e2bcaf"/><path d="M60.91,155.5A40.15,40.15,0,0,0,50,234.29H71.77A40.15,40.15,0,0,0,60.91,155.5Z" fill="#d3effb"/><path d="M69.57,156.44a39.94,39.94,0,0,1,7.3,23.08q0,.76,0,1.53c-.78,20.85-18.4,37.12-39.26,37.12H36a40,40,0,0,1-8.93-1,40.23,40.23,0,0,0,23,17.13H71.77a40.15,40.15,0,0,0-2.2-77.85Z" fill="#b1e4f9"/><path d="M100.3,187.9H317.89l-51.32-34.8H140.7L98.55,181.68a40.29,40.29,0,0,1,1.75,6.22Z" fill="#8993da"/><path d="M244.92,144.16l10.72,7.27a11.2,11.2,0,0,1,2,1.67h9l-9.52-27H230.52a38.87,38.87,0,0,0,14.4,18Z" fill="#f6e738"/><path d="M266.57,153.1h-9c6.35,6.73,1.85,18.68-8.22,18.68H113.15l-14.6,9.9a40.29,40.29,0,0,1,1.75,6.22H317.89Z" fill="#707dd3"/><path d="M230,6a26.61,26.61,0,0,1-24.53,16.28,8.22,8.22,0,0,0-7.76,11s32.64,92.44,32.79,92.83H257L226.1,38.44h11.62a26.62,26.62,0,0,0,26.62-26.62V6Z" fill="#707dd3"/><path d="M330.19,331.23a46.84,46.84,0,0,0-46.08-38.44H259.46l-55.82,86.58-55.83-86.58H123.16a46.83,46.83,0,0,0-46.08,38.44l-5.15,28.29v47h272Z" fill="#8993da"/><path d="M330.19,331.23a46.83,46.83,0,0,0-42.86-38.33A46.72,46.72,0,0,1,298,315.11l5,27.26a40.75,40.75,0,0,1-40.09,48.06H71.93v16.12h272Z" fill="#707dd3"/><path d="M35,233.88a15.62,15.62,0,0,0,8.81,25.25v7.32a6,6,0,0,0,12.09,0v-7h9.95v141H55.93V294.65a6,6,0,0,0-12.09,0v111.9a6,6,0,0,0,6,6h294a6.05,6.05,0,0,0,5.95-7.13l-13.73-75.32a52.88,52.88,0,0,0-52-43.4H270.55l7.23-11.22a38.6,38.6,0,0,0,3.68-34.35l-5.73-15.23a28.91,28.91,0,0,0,13.08-24.3,19.67,19.67,0,0,0-1.13-7.7h30.21a6,6,0,0,0,3.39-11.05l-49.67-33.68c-12.94-36.64-24-68.1-37-104.73h3.08a32.7,32.7,0,0,0,32.66-32.66V6a6,6,0,0,0-6-6h-60.7a21.67,21.67,0,0,0-20.4,14.43C162.92,72,158,85.81,135.66,149.21L101,172.72a46.17,46.17,0,1,0-66,61.16Zm12,13.49a3.52,3.52,0,0,1,0-7H74.78a3.52,3.52,0,0,1,0,7ZM267.62,269c-2.15,3.35-17.05,26.45-21.34,33.1a6,6,0,1,0,10.16,6.55l6.31-9.79h21.36a40.77,40.77,0,0,1,40.13,33.48l12.43,68.19h-43l-6.27-39.58a6,6,0,1,0-11.94,1.89l6,37.69H125.88l6-37.69a6,6,0,1,0-11.94-1.89l-6.28,39.58H78V360.07L83,332.31a40.78,40.78,0,0,1,40.13-33.48h21.36c57,88.35,54.19,84.33,55.31,85.24a6.06,6.06,0,0,0,8.43-.8c.37-.44-1.83,2.92,32.3-50a6,6,0,1,0-10.16-6.55l-11.34,17.58,13.33-51a6,6,0,1,0-11.69-3.06l-17.06,65.21-17.07-65.21a6,6,0,1,0-11.69,3.06l13.33,51L139.65,269a26.44,26.44,0,0,1-2.52-23.54l10.12-26.93L151,229.72c-2.75,3.27-4,5.55-6.55,9.78a6,6,0,0,0,5.17,9.17h7.77L163.6,267a15.91,15.91,0,0,0,21.77,9.33l12.77-5.94a13,13,0,0,1,11,0l12.78,5.94A15.9,15.9,0,0,0,243.67,267l6.17-18.29h7.77a6.05,6.05,0,0,0,5.18-9.17c-2.51-4.14-3.83-6.53-6.56-9.78L260,218.5l10.12,26.93A26.44,26.44,0,0,1,267.62,269ZM130.55,201.64v-1.35a6.36,6.36,0,0,1,6.35-6.35H141l.42,5.68L136,214.12a16.93,16.93,0,0,1-5.44-12.48Zm90.25,23.6a34.31,34.31,0,0,1,25.39,11.35H228.25a87.89,87.89,0,0,1-23-3.08,6.09,6.09,0,0,0-3.17,0,87.78,87.78,0,0,1-23,3.08H161.08a34.33,34.33,0,0,1,25.4-11.35ZM179,248.67a99.75,99.75,0,0,0,24.62-3.08c13.76,3.5,23.21,3.08,33.44,3.08l-4.87,14.43a3.8,3.8,0,0,1-5.21,2.23l-12.77-5.94a25.06,25.06,0,0,0-21.18,0l-12.78,5.94a3.8,3.8,0,0,1-5.21-2.23l-4.87-14.43Zm74.72-49.37L246.43,221a46.36,46.36,0,0,0-25.63-7.81h-3.36c.17-1.27.12-.45.12-19.21h36.58Zm-48.26,12a1.84,1.84,0,0,1-1.83,1.84H186.48A46.39,46.39,0,0,0,160.84,221l-7.31-21.66-.39-5.36h52.34v17.37Zm71.24-11v1.35a16.92,16.92,0,0,1-5.43,12.48l-5.45-14.5.42-5.68h4.11a6.36,6.36,0,0,1,6.35,6.35ZM194.64,18.45a9.56,9.56,0,0,1,9-6.36h54.65A20.59,20.59,0,0,1,237.72,32.4h-7.35l-2.45-7a6,6,0,0,0-11.4,4c6.4,18.12,24.48,69.35,32,90.61h-8.33a6,6,0,1,0,0,12.08h12.6L258,147.06H149.24l5.27-14.91H212a6,6,0,0,0,0-12.08h-53.2ZM142.56,159.14H264.72l33.49,22.71H109.07Zm-23,34.8a19.85,19.85,0,0,0-1.12,7.7,28.92,28.92,0,0,0,13.07,24.3l-5.72,15.23a38.6,38.6,0,0,0,3.67,34.35l7.24,11.22H123.16A52.88,52.88,0,0,0,78,312.14v-53a15.62,15.62,0,0,0,8.81-25.25,46.32,46.32,0,0,0,20.27-39.94ZM60.91,161.55a34.09,34.09,0,0,1,10,66.69h-20a34.09,34.09,0,0,1,10-66.69Z"/><path d="M60.91,181.69a14,14,0,0,1,13.94,13.95,6,6,0,0,0,12.09,0,26.06,26.06,0,0,0-26-26,6,6,0,1,0,0,12.08Z"/><path d="M60.91,137.37a6,6,0,0,0,6-6V118.05a6,6,0,0,0-12.09,0v13.28A6,6,0,0,0,60.91,137.37Z"/><path d="M11.16,154.44a6,6,0,1,0,8.54-8.55l-9.38-9.39a6,6,0,0,0-8.55,8.55Z"/><path d="M110.66,154.44l9.38-9.39a6,6,0,1,0-8.54-8.55l-9.39,9.39a6,6,0,1,0,8.55,8.55Z"/></g></g></svg>